<svg id="Layer_1" data-name="Layer 1" xmlns="http://www.w3.org/2000/svg" viewBox="0 0 1041.66 263.5"><title>Artboard 1</title><polygon points="80.88 182.01 161.76 134.2 80.88 0 0 134.2 80.88 182.01 80.88 182.01" style="fill:#fff"/><path d="M80.88,263.5l80.93-114L80.88,197.3,0,149.54Z" style="fill:#fff"/><path d="M271.51,218.91H192.88c.34,23.33,17.1,39.41,39.92,39.41,11.75,0,22.81-4.32,29.72-13.31l3.63,3.8c-8.12,9.68-20.22,14.69-33.35,14.69-26.44,0-45.45-18.84-45.45-45.45s18-45.45,42.16-45.45c23.85,0,42,18.49,42,44.76Zm-78.46-4.66h73.1c-1.38-21.09-16.42-36.47-36.64-36.47C209.12,177.78,194.26,193.16,193.05,214.25Z" style="fill:#fff"/><path d="M345.93,257.28c-4.32,4.15-11.41,6.22-18,6.22-14.87,0-22.82-9-22.82-23V178.3H288.21v-5h16.93v-19.7h5.71v19.7H340.4v5H310.85v61.35c0,12.1,6,18.84,17.62,18.84A21.48,21.48,0,0,0,343,253.13Z" style="fill:#fff"/><path d="M453.71,210.27V263H448V210.62c0-21.43-11.4-32.66-30.93-32.66C394.6,178,381,192.47,381,214.59V263h-5.7V134.75H381v60c5.87-13.48,18.66-22.12,36.64-22.12C439.53,172.6,453.71,185.56,453.71,210.27Z" style="fill:#fff"/><path d="M569.08,218.91H490.45c.35,23.33,17.11,39.41,39.92,39.41,11.75,0,22.81-4.32,29.73-13.31l3.63,3.8c-8.13,9.68-20.22,14.69-33.36,14.69-26.44,0-45.45-18.84-45.45-45.45s18-45.45,42.17-45.45c23.85,0,42,18.49,42,44.76Zm-78.46-4.66h73.11c-1.39-21.09-16.42-36.47-36.64-36.47C506.7,177.78,491.83,193.16,490.62,214.25Z" style="fill:#fff"/><path d="M641.6,172.6v5.7h-1.55c-20.91,0-33.18,14-33.18,37V263h-5.71V173.29h5.53v21.6C611.88,180.72,624,172.6,641.6,172.6Z" style="fill:#fff"/><path d="M743.68,218.91H665c.35,23.33,17.11,39.41,39.92,39.41,11.76,0,22.82-4.32,29.73-13.31l3.63,3.8C730.2,258.49,718.1,263.5,705,263.5c-26.44,0-45.45-18.84-45.45-45.45s18-45.45,42.17-45.45c23.85,0,42,18.49,42,44.76Zm-78.46-4.66h73.1c-1.38-21.09-16.42-36.47-36.64-36.47C681.29,177.78,666.43,193.16,665.22,214.25Z" style="fill:#fff"/><path d="M852.49,173.29V263H847V241.21c-5.53,13.82-18,22.29-35.08,22.29-22.82,0-37.16-12.79-37.16-37.5V173.29h5.7v52.36c0,21.43,11.58,32.67,31.63,32.67,21.6,0,34.74-14.52,34.74-36.64V173.29Z" style="fill:#fff"/><path d="M1041.66,210.27V263H1036V210.62c0-21.43-11.06-32.66-29.9-32.66-21.6,0-35.08,14.51-35.08,36.63V263h-5.71V210.62c0-21.43-11.06-32.66-29.72-32.66-21.78,0-35.08,14.51-35.08,36.63V263h-5.71V173.29h5.53v21.6c5.53-13.65,18.15-22.29,35.6-22.29,17.11,0,29.56,8.29,33.53,24.37,5.19-14.52,18.49-24.37,37-24.37C1028,172.6,1041.66,185.56,1041.66,210.27Z" style="fill:#fff"/></svg>